<svg width="1934" height="397" viewBox="0 0 1934 397" fill="none" xmlns="http://www.w3.org/2000/svg">
<path d="M260 148C252 133.333 241 122.167 227 114.5C213 106.833 196.667 103 178 103C157.333 103 139 107.667 123 117C107 126.333 94.5 139.667 85.5 157C76.5 174.333 72 194.333 72 217C72 240.333 76.5 260.667 85.5 278C94.8333 295.333 107.667 308.667 124 318C140.333 327.333 159.333 332 181 332C207.667 332 229.5 325 246.5 311C263.5 296.667 274.667 276.833 280 251.5H160V198H349V259C344.333 283.333 334.333 305.833 319 326.5C303.667 347.167 283.833 363.833 259.5 376.5C235.5 388.833 208.5 395 178.5 395C144.833 395 114.333 387.5 87 372.5C60 357.167 38.6667 336 23 309C7.66667 282 7.45058e-08 251.333 7.45058e-08 217C7.45058e-08 182.667 7.66667 152 23 125C38.6667 97.6666 60 76.5 87 61.5C114.333 46.1667 144.667 38.5 178 38.5C217.333 38.5 251.5 48.1667 280.5 67.5C309.5 86.5 329.5 113.333 340.5 148H260ZM508.789 396.5C482.122 396.5 458.122 390.667 436.789 379C415.456 367 398.622 350.167 386.289 328.5C374.289 306.833 368.289 281.833 368.289 253.5C368.289 225.167 374.456 200.167 386.789 178.5C399.456 156.833 416.622 140.167 438.289 128.5C459.956 116.5 484.122 110.5 510.789 110.5C537.456 110.5 561.622 116.5 583.289 128.5C604.956 140.167 621.956 156.833 634.289 178.5C646.956 200.167 653.289 225.167 653.289 253.5C653.289 281.833 646.789 306.833 633.789 328.5C621.122 350.167 603.789 367 581.789 379C560.122 390.667 535.789 396.5 508.789 396.5ZM508.789 335.5C521.456 335.5 533.289 332.5 544.289 326.5C555.622 320.167 564.622 310.833 571.289 298.5C577.956 286.167 581.289 271.167 581.289 253.5C581.289 227.167 574.289 207 560.289 193C546.622 178.667 529.789 171.5 509.789 171.5C489.789 171.5 472.956 178.667 459.289 193C445.956 207 439.289 227.167 439.289 253.5C439.289 279.833 445.789 300.167 458.789 314.5C472.122 328.5 488.789 335.5 508.789 335.5ZM725.137 82C712.803 82 702.47 78.1667 694.137 70.5C686.137 62.5 682.137 52.6666 682.137 41C682.137 29.3333 686.137 19.6666 694.137 12C702.47 3.99998 712.803 -1.95503e-05 725.137 -1.95503e-05C737.47 -1.95503e-05 747.637 3.99998 755.637 12C763.97 19.6666 768.137 29.3333 768.137 41C768.137 52.6666 763.97 62.5 755.637 70.5C747.637 78.1667 737.47 82 725.137 82ZM759.637 115V392H689.637V115H759.637ZM795.797 253.5C795.797 224.833 801.63 199.833 813.297 178.5C824.964 156.833 841.13 140.167 861.797 128.5C882.464 116.5 906.13 110.5 932.797 110.5C967.13 110.5 995.464 119.167 1017.8 136.5C1040.46 153.5 1055.63 177.5 1063.3 208.5H987.797C983.797 196.5 976.964 187.167 967.297 180.5C957.964 173.5 946.297 170 932.297 170C912.297 170 896.464 177.333 884.797 192C873.13 206.333 867.297 226.833 867.297 253.5C867.297 279.833 873.13 300.333 884.797 315C896.464 329.333 912.297 336.5 932.297 336.5C960.63 336.5 979.13 323.833 987.797 298.5H1063.3C1055.63 328.5 1040.46 352.333 1017.8 370C995.13 387.667 966.797 396.5 932.797 396.5C906.13 396.5 882.464 390.667 861.797 379C841.13 367 824.964 350.333 813.297 329C801.63 307.333 795.797 282.167 795.797 253.5ZM1222.58 396.5C1195.91 396.5 1171.91 390.667 1150.58 379C1129.24 367 1112.41 350.167 1100.08 328.5C1088.08 306.833 1082.08 281.833 1082.08 253.5C1082.08 225.167 1088.24 200.167 1100.58 178.5C1113.24 156.833 1130.41 140.167 1152.08 128.5C1173.74 116.5 1197.91 110.5 1224.58 110.5C1251.24 110.5 1275.41 116.5 1297.08 128.5C1318.74 140.167 1335.74 156.833 1348.08 178.5C1360.74 200.167 1367.08 225.167 1367.08 253.5C1367.08 281.833 1360.58 306.833 1347.58 328.5C1334.91 350.167 1317.58 367 1295.58 379C1273.91 390.667 1249.58 396.5 1222.58 396.5ZM1222.58 335.5C1235.24 335.5 1247.08 332.5 1258.08 326.5C1269.41 320.167 1278.41 310.833 1285.08 298.5C1291.74 286.167 1295.08 271.167 1295.08 253.5C1295.08 227.167 1288.08 207 1274.08 193C1260.41 178.667 1243.58 171.5 1223.58 171.5C1203.58 171.5 1186.74 178.667 1173.08 193C1159.74 207 1153.08 227.167 1153.08 253.5C1153.08 279.833 1159.58 300.167 1172.58 314.5C1185.91 328.5 1202.58 335.5 1222.58 335.5ZM1556.93 111C1589.93 111 1616.59 121.5 1636.93 142.5C1657.26 163.167 1667.43 192.167 1667.43 229.5V392H1597.43V239C1597.43 217 1591.93 200.167 1580.93 188.5C1569.93 176.5 1554.93 170.5 1535.93 170.5C1516.59 170.5 1501.26 176.5 1489.93 188.5C1478.93 200.167 1473.43 217 1473.43 239V392H1403.43V115H1473.43V149.5C1482.76 137.5 1494.59 128.167 1508.93 121.5C1523.59 114.5 1539.59 111 1556.93 111ZM1824.99 396.5C1802.33 396.5 1781.99 392.5 1763.99 384.5C1745.99 376.167 1731.66 365 1720.99 351C1710.66 337 1704.99 321.5 1703.99 304.5H1774.49C1775.83 315.167 1780.99 324 1789.99 331C1799.33 338 1810.83 341.5 1824.49 341.5C1837.83 341.5 1848.16 338.833 1855.49 333.5C1863.16 328.167 1866.99 321.333 1866.99 313C1866.99 304 1862.33 297.333 1852.99 293C1843.99 288.333 1829.49 283.333 1809.49 278C1788.83 273 1771.83 267.833 1758.49 262.5C1745.49 257.167 1734.16 249 1724.49 238C1715.16 227 1710.49 212.167 1710.49 193.5C1710.49 178.167 1714.83 164.167 1723.49 151.5C1732.49 138.833 1745.16 128.833 1761.49 121.5C1778.16 114.167 1797.66 110.5 1819.99 110.5C1852.99 110.5 1879.33 118.833 1898.99 135.5C1918.66 151.833 1929.49 174 1931.49 202H1864.49C1863.49 191 1858.83 182.333 1850.49 176C1842.49 169.333 1831.66 166 1817.99 166C1805.33 166 1795.49 168.333 1788.49 173C1781.83 177.667 1778.49 184.167 1778.49 192.5C1778.49 201.833 1783.16 209 1792.49 214C1801.83 218.667 1816.33 223.5 1835.99 228.5C1855.99 233.5 1872.49 238.667 1885.49 244C1898.49 249.333 1909.66 257.667 1918.99 269C1928.66 280 1933.66 294.667 1933.99 313C1933.99 329 1929.49 343.333 1920.49 356C1911.83 368.667 1899.16 378.667 1882.49 386C1866.16 393 1846.99 396.5 1824.99 396.5Z" fill="#8B5CF6"/>
</svg>
