<svg width="2556" height="630" viewBox="0 0 2556 630" fill="none" xmlns="http://www.w3.org/2000/svg">
<path 
d="M568.273 246C560.273 231.333 549.273 220.167 535.273 212.5C521.273 204.833 504.94 201 486.273 201C465.607 201 447.273 205.667 431.273 215C415.273 224.333 402.773 237.667 393.773 255C384.773 272.333 380.273 292.333 380.273 315C380.273 338.333 384.773 358.667 393.773 376C403.107 393.333 415.94 406.667 432.273 416C448.607 425.333 467.607 430 489.273 430C515.94 430 537.773 423 554.773 409C571.773 394.667 582.94 374.833 588.273 349.5H468.273V296H657.273V357C652.607 381.333 642.607 403.833 627.273 424.5C611.94 445.167 592.107 461.833 567.773 474.5C543.773 486.833 516.773 493 486.773 493C453.107 493 422.607 485.5 395.273 470.5C368.273 455.167 346.94 434 331.273 407C315.94 380 308.273 349.333 308.273 315C308.273 280.667 315.94 250 331.273 223C346.94 195.667 368.273 174.5 395.273 159.5C422.607 144.167 452.94 136.5 486.273 136.5C525.607 136.5 559.773 146.167 588.773 165.5C617.773 184.5 637.773 211.333 648.773 246H568.273ZM817.063 494.5C790.396 494.5 766.396 488.667 745.063 477C723.729 465 706.896 448.167 694.563 426.5C682.563 404.833 676.563 379.833 676.563 351.5C676.563 323.167 682.729 298.167 695.063 276.5C707.729 254.833 724.896 238.167 746.563 226.5C768.229 214.5 792.396 208.5 819.063 208.5C845.729 208.5 869.896 214.5 891.563 226.5C913.229 238.167 930.229 254.833 942.563 276.5C955.229 298.167 961.563 323.167 961.563 351.5C961.563 379.833 955.063 404.833 942.062 426.5C929.396 448.167 912.063 465 890.063 477C868.396 488.667 844.063 494.5 817.063 494.5ZM817.063 433.5C829.729 433.5 841.563 430.5 852.563 424.5C863.896 418.167 872.896 408.833 879.563 396.5C886.229 384.167 889.563 369.167 889.563 351.5C889.563 325.167 882.563 305 868.563 291C854.896 276.667 838.063 269.5 818.063 269.5C798.063 269.5 781.229 276.667 767.563 291C754.229 305 747.563 325.167 747.563 351.5C747.563 377.833 754.063 398.167 767.063 412.5C780.396 426.5 797.063 433.5 817.063 433.5ZM1033.41 180C1021.08 180 1010.74 176.167 1002.41 168.5C994.41 160.5 990.41 150.667 990.41 139C990.41 127.333 994.41 117.667 1002.41 110C1010.74 102 1021.08 98 1033.41 98C1045.74 98 1055.91 102 1063.91 110C1072.24 117.667 1076.41 127.333 1076.41 139C1076.41 150.667 1072.24 160.5 1063.91 168.5C1055.91 176.167 1045.74 180 1033.41 180ZM1067.91 213V490H997.91V213H1067.91ZM1104.07 351.5C1104.07 322.833 1109.9 297.833 1121.57 276.5C1133.24 254.833 1149.4 238.167 1170.07 226.5C1190.74 214.5 1214.4 208.5 1241.07 208.5C1275.4 208.5 1303.74 217.167 1326.07 234.5C1348.74 251.5 1363.9 275.5 1371.57 306.5H1296.07C1292.07 294.5 1285.24 285.167 1275.57 278.5C1266.24 271.5 1254.57 268 1240.57 268C1220.57 268 1204.74 275.333 1193.07 290C1181.4 304.333 1175.57 324.833 1175.57 351.5C1175.57 377.833 1181.4 398.333 1193.07 413C1204.74 427.333 1220.57 434.5 1240.57 434.5C1268.9 434.5 1287.4 421.833 1296.07 396.5H1371.57C1363.9 426.5 1348.74 450.333 1326.07 468C1303.4 485.667 1275.07 494.5 1241.07 494.5C1214.4 494.5 1190.74 488.667 1170.07 477C1149.4 465 1133.24 448.333 1121.57 427C1109.9 405.333 1104.07 380.167 1104.07 351.5ZM1530.85 494.5C1504.18 494.5 1480.18 488.667 1458.85 477C1437.52 465 1420.68 448.167 1408.35 426.5C1396.35 404.833 1390.35 379.833 1390.35 351.5C1390.35 323.167 1396.52 298.167 1408.85 276.5C1421.52 254.833 1438.68 238.167 1460.35 226.5C1482.02 214.5 1506.18 208.5 1532.85 208.5C1559.52 208.5 1583.68 214.5 1605.35 226.5C1627.02 238.167 1644.02 254.833 1656.35 276.5C1669.02 298.167 1675.35 323.167 1675.35 351.5C1675.35 379.833 1668.85 404.833 1655.85 426.5C1643.18 448.167 1625.85 465 1603.85 477C1582.18 488.667 1557.85 494.5 1530.85 494.5ZM1530.85 433.5C1543.52 433.5 1555.35 430.5 1566.35 424.5C1577.68 418.167 1586.68 408.833 1593.35 396.5C1600.02 384.167 1603.35 369.167 1603.35 351.5C1603.35 325.167 1596.35 305 1582.35 291C1568.68 276.667 1551.85 269.5 1531.85 269.5C1511.85 269.5 1495.02 276.667 1481.35 291C1468.02 305 1461.35 325.167 1461.35 351.5C1461.35 377.833 1467.85 398.167 1480.85 412.5C1494.18 426.5 1510.85 433.5 1530.85 433.5ZM1865.2 209C1898.2 209 1924.87 219.5 1945.2 240.5C1965.53 261.167 1975.7 290.167 1975.7 327.5V490H1905.7V337C1905.7 315 1900.2 298.167 1889.2 286.5C1878.2 274.5 1863.2 268.5 1844.2 268.5C1824.87 268.5 1809.53 274.5 1798.2 286.5C1787.2 298.167 1781.7 315 1781.7 337V490H1711.7V213H1781.7V247.5C1791.03 235.5 1802.87 226.167 1817.2 219.5C1831.87 212.5 1847.87 209 1865.2 209ZM2133.27 494.5C2110.6 494.5 2090.27 490.5 2072.27 482.5C2054.27 474.167 2039.93 463 2029.27 449C2018.93 435 2013.27 419.5 2012.27 402.5H2082.77C2084.1 413.167 2089.27 422 2098.27 429C2107.6 436 2119.1 439.5 2132.77 439.5C2146.1 439.5 2156.43 436.833 2163.77 431.5C2171.43 426.167 2175.27 419.333 2175.27 411C2175.27 402 2170.6 395.333 2161.27 391C2152.27 386.333 2137.77 381.333 2117.77 376C2097.1 371 2080.1 365.833 2066.77 360.5C2053.77 355.167 2042.43 347 2032.77 336C2023.43 325 2018.77 310.167 2018.77 291.5C2018.77 276.167 2023.1 262.167 2031.77 249.5C2040.77 236.833 2053.43 226.833 2069.77 219.5C2086.43 212.167 2105.93 208.5 2128.27 208.5C2161.27 208.5 2187.6 216.833 2207.27 233.5C2226.93 249.833 2237.77 272 2239.77 300H2172.77C2171.77 289 2167.1 280.333 2158.77 274C2150.77 267.333 2139.93 264 2126.27 264C2113.6 264 2103.77 266.333 2096.77 271C2090.1 275.667 2086.77 282.167 2086.77 290.5C2086.77 299.833 2091.43 307 2100.77 312C2110.1 316.667 2124.6 321.5 2144.27 326.5C2164.27 331.5 2180.77 336.667 2193.77 342C2206.77 347.333 2217.93 355.667 2227.27 367C2236.93 378 2241.93 392.667 2242.27 411C2242.27 427 2237.77 441.333 2228.77 454C2220.1 466.667 2207.43 476.667 2190.77 484C2174.43 491 2155.27 494.5 2133.27 494.5Z" fill="#8B5CF6"/>
</svg>
