<svg width="579" height="630" viewBox="0 0 579 630" fill="none" xmlns="http://www.w3.org/2000/svg">
<path d="M560 536C560 551.464 547.464 564 532 564H56C40.536 564 28 551.464 28 536V535.918L28.0029 535.836L45.501 109.368C45.572 93.9648 58.08 81.5 73.5 81.5H513C528.423 81.5 540.931 93.9691 540.998 109.376L559.996 535.822L560 535.911V536Z" fill="#8B5CF6" stroke="url(#paint0_linear_158_12)" stroke-width="8"/>
<path d="M426.969 204.6C414.169 181.133 396.569 163.267 374.169 151C351.769 138.733 325.635 132.6 295.769 132.6C262.702 132.6 233.369 140.067 207.769 155C182.169 169.933 162.169 191.267 147.769 219C133.369 246.733 126.169 278.733 126.169 315C126.169 352.333 133.369 384.867 147.769 412.6C162.702 440.333 183.235 461.667 209.369 476.6C235.502 491.533 265.902 499 300.569 499C343.235 499 378.169 487.8 405.369 465.4C432.569 442.467 450.435 410.733 458.969 370.2H266.969V284.6H569.369V382.2C561.902 421.133 545.902 457.133 521.369 490.2C496.835 523.267 465.102 549.933 426.169 570.2C387.769 589.933 344.569 599.8 296.569 599.8C242.702 599.8 193.902 587.8 150.169 563.8C106.969 539.267 72.8354 505.4 47.7688 462.2C23.2354 419 10.9688 369.933 10.9688 315C10.9688 260.067 23.2354 211 47.7688 167.8C72.8354 124.067 106.969 90.2 150.169 66.2C193.902 41.6667 242.435 29.4 295.769 29.4C358.702 29.4 413.369 44.8666 459.769 75.8C506.169 106.2 538.169 149.133 555.769 204.6H426.969Z" fill="white"/>
<circle cx="294" cy="314" r="262" stroke="#8B5CF6" stroke-width="24"/>
<defs>
<linearGradient id="paint0_linear_158_12" x1="294" y1="71" x2="294" y2="695.5" gradientUnits="userSpaceOnUse">
<stop offset="0.122846" stop-color="#3B156C" stop-opacity="0"/>
<stop offset="1" stop-color="#7328D2"/>
</linearGradient>
</defs>
</svg>
